<?xml version="1.0" encoding="UTF-8" standalone="no"?>
<!DOCTYPE svg PUBLIC "-//W3C//DTD SVG 1.1//EN" "http://www.w3.org/Graphics/SVG/1.1/DTD/svg11.dtd">
<svg width="100%" height="100%" viewBox="0 0 420 100" version="1.1" xmlns="http://www.w3.org/2000/svg" xmlns:xlink="http://www.w3.org/1999/xlink" xml:space="preserve" xmlns:serif="http://www.serif.com/" style="fill-rule:evenodd;clip-rule:evenodd;stroke-linejoin:round;stroke-miterlimit:1.41421;">
    <g id="main_text" transform="matrix(3.67736,0,0,3.67736,115.831,-19.5433)">
        <path d="M5.28,13.46C5.827,13.46 6.367,13.503 6.9,13.59C7.433,13.677 7.927,13.853 8.38,14.12C8.727,13.947 9.133,13.793 9.6,13.66C10.067,13.527 10.593,13.46 11.18,13.46C11.7,13.46 12.237,13.51 12.79,13.61C13.343,13.71 13.843,13.92 14.29,14.24C14.737,14.56 15.103,15.02 15.39,15.62C15.677,16.22 15.82,17.013 15.82,18L15.82,23.98C15.473,24.047 15.16,24.09 14.88,24.11C14.6,24.13 14.353,24.14 14.14,24.14C13.913,24.14 13.66,24.13 13.38,24.11C13.1,24.09 12.787,24.047 12.44,23.98L12.44,18.36C12.44,17.653 12.32,17.147 12.08,16.84C11.84,16.533 11.447,16.38 10.9,16.38C10.713,16.38 10.53,16.4 10.35,16.44C10.17,16.48 10.047,16.513 9.98,16.54C10.1,17.007 10.16,17.54 10.16,18.14L10.16,23.98C9.813,24.047 9.5,24.09 9.22,24.11C8.94,24.13 8.693,24.14 8.48,24.14C8.253,24.14 8,24.13 7.72,24.11C7.44,24.09 7.127,24.047 6.78,23.98L6.78,18.36C6.78,17.653 6.667,17.147 6.44,16.84C6.213,16.533 5.827,16.38 5.28,16.38C5.133,16.38 4.977,16.393 4.81,16.42C4.643,16.447 4.54,16.473 4.5,16.5L4.5,23.98C4.153,24.047 3.84,24.09 3.56,24.11C3.28,24.13 3.033,24.14 2.82,24.14C2.593,24.14 2.34,24.13 2.06,24.11C1.78,24.09 1.467,24.047 1.12,23.98L1.12,14.16C1.587,14 2.147,13.843 2.8,13.69C3.453,13.537 4.28,13.46 5.28,13.46ZM24.52,13.66C24.627,13.633 24.83,13.607 25.13,13.58C25.43,13.553 25.753,13.54 26.1,13.54C26.54,13.54 26.933,13.553 27.28,13.58C27.627,13.607 27.873,13.633 28.02,13.66L24.16,20.36L24.16,23.98C23.813,24.033 23.5,24.073 23.22,24.1C22.94,24.127 22.687,24.14 22.46,24.14C22.233,24.14 21.98,24.127 21.7,24.1C21.42,24.073 21.113,24.033 20.78,23.98L20.78,20.36L16.94,13.66C17.087,13.633 17.343,13.607 17.71,13.58C18.077,13.553 18.48,13.54 18.92,13.54C19.267,13.54 19.607,13.553 19.94,13.58C20.273,13.607 20.493,13.633 20.6,13.66L22.56,17.6L24.52,13.66ZM39.94,13.66C40.047,13.633 40.267,13.607 40.6,13.58C40.933,13.553 41.273,13.54 41.62,13.54C42.06,13.54 42.47,13.553 42.85,13.58C43.23,13.607 43.493,13.633 43.64,13.66L39.72,23.96C39.44,24.027 39.157,24.07 38.87,24.09C38.583,24.11 38.307,24.12 38.04,24.12C37.773,24.12 37.5,24.11 37.22,24.09C36.94,24.07 36.687,24.027 36.46,23.96L32.62,13.66C32.767,13.633 33.03,13.607 33.41,13.58C33.79,13.553 34.2,13.54 34.64,13.54C34.987,13.54 35.333,13.553 35.68,13.58C36.027,13.607 36.253,13.633 36.36,13.66L38.18,19.86C38.487,18.833 38.783,17.793 39.07,16.74C39.357,15.687 39.647,14.66 39.94,13.66ZM48.24,23.98C47.893,24.033 47.58,24.073 47.3,24.1C47.02,24.127 46.767,24.14 46.54,24.14C46.313,24.14 46.06,24.127 45.78,24.1C45.5,24.073 45.193,24.033 44.86,23.98L44.86,13.66C45.153,13.593 45.443,13.547 45.73,13.52C46.017,13.493 46.293,13.48 46.56,13.48C46.813,13.48 47.087,13.493 47.38,13.52C47.673,13.547 47.96,13.593 48.24,13.66L48.24,23.98ZM52.78,16.48L49.82,16.48C49.753,16.213 49.71,15.963 49.69,15.73C49.67,15.497 49.66,15.273 49.66,15.06C49.66,14.847 49.67,14.627 49.69,14.4C49.71,14.173 49.753,13.927 49.82,13.66L59.12,13.66C59.187,13.927 59.23,14.173 59.25,14.4C59.27,14.627 59.28,14.847 59.28,15.06C59.28,15.273 59.27,15.497 59.25,15.73C59.23,15.963 59.187,16.213 59.12,16.48L56.16,16.48L56.16,23.98C55.813,24.033 55.5,24.073 55.22,24.1C54.94,24.127 54.687,24.14 54.46,24.14C54.233,24.14 53.98,24.127 53.7,24.1C53.42,24.073 53.113,24.033 52.78,23.98L52.78,16.48ZM60.18,20.62C60.18,19.967 60.32,19.427 60.6,19C60.88,18.573 61.24,18.233 61.68,17.98C62.12,17.727 62.607,17.55 63.14,17.45C63.673,17.35 64.193,17.3 64.7,17.3L65.92,17.3C65.907,17.06 65.84,16.86 65.72,16.7C65.6,16.54 65.447,16.417 65.26,16.33C65.073,16.243 64.867,16.183 64.64,16.15C64.413,16.117 64.18,16.1 63.94,16.1C63.62,16.1 63.247,16.137 62.82,16.21C62.393,16.283 61.953,16.4 61.5,16.56C61.38,16.333 61.277,16.127 61.19,15.94C61.103,15.753 61.037,15.563 60.99,15.37C60.943,15.177 60.91,14.977 60.89,14.77C60.87,14.563 60.86,14.327 60.86,14.06C61.5,13.847 62.137,13.687 62.77,13.58C63.403,13.473 63.973,13.42 64.48,13.42C65.173,13.42 65.8,13.503 66.36,13.67C66.92,13.837 67.397,14.093 67.79,14.44C68.183,14.787 68.487,15.23 68.7,15.77C68.913,16.31 69.02,16.953 69.02,17.7L69.02,23.56C68.513,23.707 67.9,23.853 67.18,24C66.46,24.147 65.7,24.22 64.9,24.22C64.207,24.22 63.57,24.157 62.99,24.03C62.41,23.903 61.913,23.7 61.5,23.42C61.087,23.14 60.763,22.77 60.53,22.31C60.297,21.85 60.18,21.287 60.18,20.62ZM64.9,21.74C65.02,21.74 65.193,21.727 65.42,21.7C65.647,21.673 65.813,21.647 65.92,21.62L65.92,19.42L64.78,19.42C64.313,19.42 63.92,19.52 63.6,19.72C63.28,19.92 63.12,20.2 63.12,20.56C63.12,20.827 63.18,21.037 63.3,21.19C63.42,21.343 63.57,21.46 63.75,21.54C63.93,21.62 64.123,21.673 64.33,21.7C64.537,21.727 64.727,21.74 64.9,21.74ZM74.06,19.9C74.207,20.447 74.463,20.833 74.83,21.06C75.197,21.287 75.68,21.4 76.28,21.4C76.667,21.4 77.1,21.353 77.58,21.26C78.06,21.167 78.533,21.027 79,20.84C79.187,21.187 79.35,21.6 79.49,22.08C79.63,22.56 79.707,23.06 79.72,23.58C78.533,24.02 77.32,24.24 76.08,24.24C75.12,24.24 74.297,24.107 73.61,23.84C72.923,23.573 72.363,23.203 71.93,22.73C71.497,22.257 71.177,21.693 70.97,21.04C70.763,20.387 70.66,19.673 70.66,18.9C70.66,18.14 70.767,17.427 70.98,16.76C71.193,16.093 71.513,15.513 71.94,15.02C72.367,14.527 72.9,14.137 73.54,13.85C74.18,13.563 74.927,13.42 75.78,13.42C76.487,13.42 77.117,13.54 77.67,13.78C78.223,14.02 78.693,14.35 79.08,14.77C79.467,15.19 79.763,15.697 79.97,16.29C80.177,16.883 80.28,17.527 80.28,18.22C80.28,18.58 80.263,18.903 80.23,19.19C80.197,19.477 80.167,19.713 80.14,19.9L74.06,19.9ZM75.66,15.96C75.233,15.96 74.867,16.093 74.56,16.36C74.253,16.627 74.073,17.04 74.02,17.6L77.22,17.6C77.193,17.133 77.05,16.743 76.79,16.43C76.53,16.117 76.153,15.96 75.66,15.96Z" style="fill:rgb(29,29,31);fill-rule:nonzero;"/>
    </g>
    <g id="SvgjsG1532" transform="matrix(1.00694,0,0,1.00694,6.43262,-0.35272)">
        <path d="M82.16,59.1C87.553,53.055 90.536,45.232 90.536,37.131C90.536,19.028 75.639,4.131 57.536,4.131C39.432,4.131 24.536,19.028 24.536,37.131C24.536,53.018 36.008,66.762 51.64,69.6C53.62,69.96 55.628,70.141 57.64,70.14C61.698,70.141 65.72,69.384 69.5,67.91L76.31,83.29C77.637,86.315 80.258,88.586 83.44,89.47C83.78,89.57 84.13,89.65 84.44,89.71C85.1,89.83 85.769,89.89 86.44,89.89C92.508,89.867 97.487,84.868 97.487,78.8C97.487,75.826 96.291,72.974 94.17,70.89L82.16,59.1ZM52.53,64.68C39.24,62.296 29.474,50.622 29.474,37.12C29.474,21.761 42.111,9.122 57.47,9.12C59.164,9.122 60.854,9.276 62.52,9.58C75.816,11.958 85.591,23.635 85.591,37.143C85.591,46.326 81.073,54.945 73.52,60.17C67.411,64.42 59.845,66.045 52.53,64.68ZM92.48,79.31C92.214,82.44 89.563,84.875 86.422,84.875C86.062,84.875 85.704,84.843 85.35,84.78C85.16,84.78 84.97,84.7 84.78,84.65C83.033,84.164 81.593,82.919 80.86,81.26L74,65.74C74.8,65.28 75.58,64.79 76.34,64.26C77.11,63.72 77.85,63.15 78.56,62.56L90.67,74.45C91.97,75.716 92.635,77.502 92.48,79.31ZM63.93,77C62.559,77 61.43,78.129 61.43,79.5L61.43,89C61.43,90.037 60.577,90.89 59.54,90.89L28.41,90.89L28.41,75.72C28.394,72.577 25.803,70 22.66,70L7.5,70L7.5,19.64C7.5,18.603 8.353,17.75 9.39,17.75L19.77,17.75C21.141,17.75 22.27,16.621 22.27,15.25C22.27,13.879 21.141,12.75 19.77,12.75L9.39,12.75C5.612,12.755 2.505,15.862 2.5,19.64L2.5,73.64C2.499,74.303 2.762,74.94 3.23,75.41L23,95.15C23.47,95.618 24.107,95.881 24.77,95.88L59.54,95.88C63.314,95.875 66.419,92.774 66.43,89L66.43,79.55C66.43,79.533 66.431,79.517 66.431,79.5C66.431,78.129 65.302,77 63.931,77C63.93,77 63.93,77 63.93,77ZM9.89,75L22.66,75C23.071,75 23.41,75.339 23.41,75.75L23.41,88.5L9.89,75ZM57.52,36.68C62.719,36.615 66.96,32.32 66.96,27.121C66.96,21.876 62.644,17.561 57.4,17.561C52.156,17.561 47.84,21.876 47.84,27.12C47.878,32.395 52.245,36.708 57.52,36.68ZM57.52,22.57C59.975,22.635 61.96,24.672 61.96,27.128C61.96,29.63 59.902,31.688 57.4,31.688C54.899,31.688 52.841,29.631 52.84,27.13C52.867,24.614 54.944,22.56 57.46,22.56C57.48,22.56 57.5,22.56 57.52,22.56L57.52,22.57ZM71.8,53.74C70.429,53.74 69.3,52.611 69.3,51.24L69.3,46.1C69.267,44.045 67.555,42.378 65.5,42.4L64.24,42.4L60,46.62C58.65,47.933 56.47,47.933 55.12,46.62L50.8,42.41L49.55,42.41C47.495,42.388 45.783,44.055 45.75,46.11L45.75,51.25C45.75,52.621 44.621,53.75 43.25,53.75C41.879,53.75 40.75,52.621 40.75,51.25L40.75,46.1C40.783,41.302 44.752,37.378 49.55,37.4L51.83,37.4C52.485,37.401 53.114,37.66 53.58,38.12L57.52,42L61.46,38.12C61.926,37.66 62.555,37.401 63.21,37.4L65.5,37.4C70.298,37.378 74.267,41.302 74.3,46.1L74.3,51.24C74.3,52.611 73.171,53.74 71.8,53.74Z" style="fill:rgb(29,29,31);fill-rule:nonzero;"/>
    </g>
</svg>
